<?xml version='1.0' encoding='utf-8'?>
<svg xmlns="http://www.w3.org/2000/svg" enable-background="new 0 0 2045.843 1720.102" version="1.1" viewBox="0 0 2045.843 1720.102">
	<path d="m71.416 340.2c9.129 25.519 355.56 994.07 358.39 1002h1052.5s143.31-824.72 174.14-1002h-1585zm1332.5 909.63h-73.44c0.016-0.172 5.5-59.251 5.5-59.251h75.54c-0.026 0.199-7.555 58.895-7.6 59.251zm-912.7 0s-18.494-59.25-18.494-59.251h75.519c1e-3 5e-3 16.395 59.251 16.395 59.251h-73.42zm-65.814-210.86h80.888c0.133 0.48 16.388 59.226 16.396 59.256h-78.789c0-1e-3 -18.495-59.255-18.495-59.256zm-70.986-227.42h88.947c0.054 0.197 16.325 58.992 16.398 59.256h-86.847c-0.532-1.703-17.65-56.541-18.498-59.256zm1137-243.96h-97.605c0.263-2.828 5.238-56.426 5.501-59.254h99.704c-0.153 1.195-7.445 58.037-7.6 59.254zm-9.721 75.802h-94.92c0.012-0.127 5.49-59.136 5.5-59.254h97.019c-0.682 5.311-6.821 53.183-7.599 59.254zm-19.445 151.61h-89.55c1.042-11.204 4.484-48.299 5.502-59.256h91.648c-0.3 2.344-7.588 59.165-7.6 59.256zm-9.722 75.806h-86.866c3.627-39.049 5.492-59.164 5.501-59.256h88.964c-2.312 18.037-4.37 34.083-7.599 59.256zm-29.166 227.42h-78.811c5e-3 -0.059 5.501-59.252 5.501-59.256h80.909c-0.291 2.272-6.859 53.496-7.599 59.256zm-868.82 75.801c-1.421-5.231-14.653-53.945-16.096-59.253h78.223c0.973 4.122 13.736 58.156 13.995 59.253h-76.122zm-36.687-135.06h80.908c0.01 0.041 13.987 59.215 13.997 59.256h-78.809c-4e-3 -0.016-16.092-59.24-16.096-59.256zm855.36-395.58h-94.908c0-1e-3 3.101-59.253 3.101-59.254h97.005c-0.25 2.896-5.067 57.751-5.198 59.254zm-19.957 227.42h-86.85c0.023-0.436 3.091-59.052 3.102-59.256h88.948c-0.055 0.628-5.025 57.252-5.2 59.256zm-6.651 75.806h-84.164c0.124-2.384 2.974-56.878 3.099-59.256h86.263c-0.704 8.051-4.799 54.689-5.198 59.256zm-13.306 151.61h-78.791s3.101-59.254 3.101-59.256h80.889c-0.153 1.754-5.184 59.085-5.199 59.256zm-709.27 0c-0.012-0.052-13.677-59.175-13.696-59.256h80.899c3.29 16.805 11.386 58.174 11.597 59.256h-78.8zm75.608-75.806c-0.227-1.2-11.105-58.247-11.297-59.254h83.598s7.793 50.225 9.196 59.254h-81.497zm554.36-151.61h-86.859c0.014-1.145 0.689-58.153 0.702-59.256h88.956c-0.036 0.772-2.534 53.681-2.799 59.256zm-3.583 75.806h-84.172c0.098-8.07 0.655-55.385 0.701-59.256h86.272c-0.073 1.545-2.627 55.59-2.801 59.256zm-381.11-75.806c-0.2-1.825-6.417-58.539-6.496-59.256h88.961c9e-3 0.115 4.365 58.812 4.398 59.256h-86.863zm99.282 0c-0.245-3.543-3.849-55.658-4.099-59.256h88.957c0.37 10.891 1.812 53.741 1.999 59.256h-86.857zm99.27 0c-0.367-12.715-1.251-43.771-1.698-59.256h88.965c-7e-3 1.053-0.395 58.203-0.402 59.256h-86.865zm87.379-75.806h-89.551c0-2e-3 -1.699-59.256-1.699-59.256h91.651c-0.077 11.109-0.398 58.828-0.401 59.256zm-104.35-59.256c0.177 5.229 1.965 58.251 1.999 59.256h-89.544c-2e-3 -0.032-4.077-58.968-4.097-59.256h91.642zm-104.75 0c2e-3 0.032 4.378 58.974 4.399 59.256h-89.548c-0.036-0.332-6.331-57.732-6.498-59.256h91.647zm-104.75 0c0.766 6.687 6.069 52.897 6.798 59.256h-89.548c-0.04-0.264-8.748-58.255-8.898-59.256h91.648zm8.697 75.806c0 1e-3 6.796 59.255 6.796 59.256h-86.861s-6.295-41.936-8.897-59.256h88.962zm-68.682 135.06c-0.26-1.737-8.711-58-8.898-59.256h86.274c0 2e-3 6.797 59.256 6.797 59.256h-84.173zm96.21 0c-0.03-0.273-6.492-59.192-6.499-59.256h86.277c0.068 0.911 3.52 47.395 4.399 59.256h-84.177zm96.209 0c-0.033-0.477-4.025-58.198-4.098-59.256h86.271c0.011 0.332 1.947 57.73 1.999 59.256h-84.172zm96.201 0c-0.087-3.025-1.61-56.192-1.699-59.256h86.279c0 1e-3 -0.401 59.255-0.401 59.256h-84.179zm98.01-151.61c0.03-2.571 0.669-56.555 0.702-59.256h91.642c-0.455 9.655-2.799 59.256-2.799 59.256h-89.545zm93.126-75.806h-92.228c0.125-10.737 0.63-53.207 0.7-59.254h94.328c-0.014 0.295-2.72 57.547-2.8 59.254zm-105.42 0h-92.237c-0.06-2.064-1.656-57.773-1.699-59.254h94.337c-6e-3 1.001-0.39 57.58-0.401 59.254zm-107.42-59.254c0.196 5.823 1.982 58.776 1.998 59.254h-92.229c-0.421-6.116-3.763-54.388-4.098-59.254h94.329zm-107.81 0c0.539 7.24 3.75 50.526 4.397 59.254h-92.234c-0.365-3.322-6.143-56.013-6.498-59.254h94.335zm-107.82 0c1.287 11.227 6.77 59.013 6.798 59.254h-92.235c-0.025-0.168-8.28-55.156-8.896-59.254h94.333zm-107.81 0c8e-3 0.05 9.194 59.24 9.196 59.254h-92.244c-0.014-0.073-11.283-59.181-11.297-59.254h94.345zm11.765 75.804c0.156 1 8.45 54.457 9.197 59.256h-89.558c-0.209-1.094-11.112-58.278-11.297-59.256h91.658zm11.765 75.806c1.279 8.231 9.194 59.233 9.198 59.256h-86.871c-2e-3 -0.011-11.297-59.256-11.297-59.256h88.97zm11.767 75.806c0.141 0.905 8.784 56.592 9.197 59.256h-84.185c-0.237-1.25-11.106-58.255-11.297-59.256h86.285zm32.612 135.06c0-1e-3 -8.897-59.254-8.897-59.254h83.587c0.525 4.56 6.497 56.632 6.799 59.254h-81.489zm93.14 0c-0.408-3.719-6.495-59.226-6.498-59.254h83.59c0.735 9.915 3.929 52.962 4.397 59.254h-81.489zm93.138 0c-0.123-1.791-4.043-58.457-4.098-59.254h83.586c0.202 5.997 1.962 58.147 2 59.254h-81.488zm93.131 0c-0.029-1.001-1.659-57.914-1.698-59.254h83.593c-8e-3 1.11-0.344 50.711-0.4 59.254h-81.495zm93.849-59.254h83.585c-0.098 2.069-2.739 57.92-2.802 59.254h-81.484c0.044-3.619 0.618-52.103 0.701-59.254zm98.697-319.77h-94.915c1e-3 -0.053 0.701-59.166 0.702-59.254h97.015c-7e-3 0.131-2.794 59.092-2.802 59.254zm-108.49 0h-94.923c-3e-3 -0.105-1.694-59.124-1.698-59.254h97.024c-5e-3 0.372-0.4 58.829-0.403 59.254zm-110.49-59.254c3e-3 0.089 1.695 50.282 1.999 59.254h-94.915c-7e-3 -0.097-4.09-59.157-4.096-59.254h97.012zm-110.88 0s4.397 59.25 4.397 59.254h-94.921c-0.025-0.229-6.493-59.203-6.499-59.254h97.023zm-110.89 0c0.026 0.218 6.773 59.036 6.798 59.254h-94.918c-0.163-1.083-8.411-56.015-8.897-59.254h97.017zm-110.88 0c5e-3 0.035 9.191 59.219 9.196 59.254h-94.93c-0.191-1.005-11.205-58.783-11.295-59.254h97.029zm-110.89 0c0.478 2.439 11.493 58.72 11.597 59.254h-94.916c-2.012-8.7-13.464-58.252-13.695-59.253 1.752 0 96.756-1e-3 97.014-1e-3zm14.837 75.804s11.586 59.209 11.595 59.254h-92.23c-0.129-0.558-13.654-59.074-13.696-59.254h94.331zm14.835 75.804c0.416 2.125 11.253 57.506 11.596 59.256h-89.544c-0.253-1.093-11.464-49.595-13.695-59.256h91.643zm14.835 75.806s11.565 59.087 11.597 59.256h-86.859c-0.022-0.096-13.523-58.508-13.696-59.256h88.958zm14.837 75.806c0.035 0.176 11.547 59 11.597 59.256h-84.172c-0.416-1.801-13.257-57.35-13.698-59.256h86.273zm14.836 75.806c0 3e-3 11.596 59.254 11.596 59.254h-81.485c0-1e-3 -13.696-59.253-13.696-59.254h83.585zm37.695 135.06c-0.206-1.082-11.2-58.734-11.299-59.256h80.912c0.458 2.946 8.876 57.181 9.197 59.256h-78.81zm90.077 0s-3.958-26.371-8.898-59.256h80.903c0.031 0.269 6.768 58.987 6.797 59.256h-78.802zm90.07 0c-0.109-1.001-6.445-58.771-6.498-59.256h80.903c3e-3 0.036 4.399 59.256 4.399 59.256h-78.804zm90.067 0c-0.021-0.305-4.076-58.953-4.097-59.256h80.901c0.083 2.429 1.98 58.629 1.999 59.256h-78.803zm90.062 0s-1.695-59.14-1.698-59.256h80.908c-0.03 4.573-0.392 58.292-0.4 59.256h-78.81zm90.78-59.256h80.898c-0.071 1.509-2.663 56.297-2.801 59.256h-78.796c0-0.226 0.696-59.04 0.699-59.256zm194.76-243.97h-89.534c1e-3 -0.024 3.098-59.232 3.099-59.256h91.633c-0.138 1.57-4.881 55.653-5.198 59.256zm6.652-75.806h-92.221c0.065-1.235 2.797-53.478 3.1-59.254h94.321c-0.087 1-5.083 57.917-5.2 59.254zm13.304-151.61h-97.591c2e-3 -0.042 3.098-59.212 3.1-59.254h99.69c-0.26 2.973-5.067 57.756-5.199 59.254zm-111.54 0h-97.601c0.012-1.005 0.652-55.212 0.701-59.254h99.701c-0.01 0.216-2.769 58.581-2.801 59.254zm-111.56 0h-97.61c-0.033-1.153-1.62-56.577-1.697-59.254h99.708c-9e-3 1.268-0.356 52.417-0.401 59.254zm-113.56-59.254c0.176 5.279 1.93 57.217 1.998 59.254h-97.6c-0.135-1.94-3.797-54.884-4.1-59.254h99.702zm-113.96 0c0.137 1.847 4.253 57.319 4.397 59.254h-97.609c-1.006-9.159-5.483-50.012-6.498-59.254h99.71zm-113.96 0c0.217 1.895 4.08 35.561 6.796 59.254h-97.605c0-1e-3 -7.974-53.111-8.896-59.254h99.705zm-113.96 0c0.017 0.111 9.179 59.143 9.196 59.254h-97.615c-0.905-4.743-10.121-53.086-11.298-59.254h99.717zm-113.96 0c0 1e-3 11.597 59.253 11.597 59.254h-97.599c-0.079-0.342-13.235-57.258-13.696-59.254h99.698zm-113.95 0c0.237 1.002 13.677 57.904 13.996 59.254h-97.607c-1.18-4.348-14.039-51.688-16.094-59.254h99.705zm17.905 75.802s13.996 59.252 13.996 59.253h-94.923c-0.202-0.746-15.929-58.644-16.095-59.254 2.743 1e-3 95.077 1e-3 97.022 1e-3zm17.905 75.804c2e-3 0.01 12.29 52.027 13.996 59.254h-92.237c-2.288-8.425-14.766-54.355-16.095-59.254h94.336zm17.905 75.804c0.077 0.327 13.808 58.461 13.995 59.256h-89.552c-6e-3 -0.022-16.089-59.234-16.095-59.256h91.652zm17.904 75.806c1.905 8.065 13.94 59.011 13.998 59.256h-86.867c-0.167-0.619-15.913-58.576-16.096-59.256h88.965zm17.907 75.806c0 2e-3 13.938 59.019 13.994 59.256h-84.179c-0.441-1.624-15.912-58.579-16.096-59.256h86.281zm17.904 75.806c0.82 3.475 12.604 53.367 13.996 59.254h-81.495c-1.458-5.371-14.615-53.805-16.095-59.254h83.594zm60.687 210.86c-0.234-1.011-13.323-57.642-13.695-59.253h78.213c0.396 2.025 11.002 56.209 11.596 59.253h-76.114zm86.993 0c-1.4-7.337-11.106-58.253-11.297-59.253h78.225s9.188 59.203 9.196 59.253h-76.124zm87.008 0c-0.134-0.893-8.897-59.253-8.897-59.253h78.214c0.49 4.271 6.542 57.03 6.797 59.253h-76.114zm86.999 0c-5e-3 -0.043-6.491-59.21-6.496-59.253h78.216c0.38 5.112 4.004 53.972 4.398 59.253h-76.118zm87 0c-0.079-1.135-4.082-58.986-4.1-59.253h78.216c0.051 1.492 1.96 58.129 1.999 59.253h-76.115zm86.991 0c-0.054-1.877-1.644-57.359-1.698-59.253h78.222c-6e-3 0.871-0.389 57.679-0.4 59.253h-76.124zm87.711-59.253h78.209c0 1e-3 -2.8 59.252-2.8 59.253h-76.112c0.049-3.929 0.663-55.826 0.703-59.253zm89.395 0h78.205c-0.171 1.958-5.027 57.289-5.199 59.253h-76.106c0.098-1.888 3.001-57.363 3.1-59.253zm86.31-92.354h-81.476c0.012-0.236 3.078-58.839 3.1-59.254h83.576c-7e-3 0.076-4.947 56.365-5.2 59.254zm46.564-530.63h-100.28c0.028-0.537 2.992-57.192 3.101-59.252h102.38c-0.118 1.338-5.175 58.957-5.2 59.252zm-114.61 0h-100.29c4e-3 -0.331 0.698-58.921 0.702-59.252h102.39c-0.071 1.459-2.753 58.252-2.801 59.252zm-114.62 0h-100.3c-0.054-1.869-1.68-58.613-1.699-59.252h102.4c-0.032 5.142-0.367 54.195-0.401 59.252zm-116.63-59.252c0 0.015 1.998 59.237 1.999 59.252h-100.29c-0.044-0.624-3.957-57.225-4.098-59.252h102.39zm-117.02 0c0.064 0.87 4.242 57.175 4.397 59.252h-100.3s-6.497-59.25-6.497-59.252h102.4zm-117.03 0c0.469 4.071 6.645 57.93 6.798 59.252h-100.29c-0.839-5.602-7.831-52.147-8.896-59.252h102.39zm-117.02 0c0 2e-3 8.568 55.204 9.196 59.252h-100.3c-1.839-9.653-11.124-58.351-11.296-59.252h102.4zm-117.04 0s8.049 41.133 11.597 59.252h-100.28c-0.555-2.397-13.628-58.956-13.696-59.253 6.904 0 102.11 1e-3 102.38 1e-3zm-117.02 0c0.088 0.374 13.908 58.88 13.996 59.253h-100.29c-4e-3 -0.013-16.093-59.239-16.096-59.252 104.7 0 102.35-1e-3 102.39-1e-3zm-117.03 0s16.198 58.541 16.395 59.252h-100.28c-0.755-2.418-16.814-53.86-18.495-59.252h102.38zm20.973 75.8c7.881 28.488 16.394 59.247 16.396 59.254h-97.592c-0.528-1.689-18.308-58.656-18.495-59.254h99.691zm20.976 75.802c7e-3 0.026 16.3 58.911 16.395 59.254h-94.906c-1.048-3.361-18.402-58.956-18.495-59.254h97.006zm20.975 75.804c0 1e-3 16.395 59.254 16.395 59.254h-92.219s-18.495-59.252-18.496-59.254h94.32zm20.975 75.804c6e-3 0.022 16.389 59.234 16.395 59.256h-89.534c-0.124-0.397-18.338-58.757-18.496-59.256h91.635zm41.951 151.61c6e-3 0.022 16.39 59.234 16.396 59.256h-84.16c-4e-3 -0.012-18.295-58.609-18.495-59.256h86.259zm20.976 75.806s16.352 59.099 16.395 59.254h-81.476s-16.842-53.954-18.495-59.254h83.576zm41.951 151.61c0.277 1 12.255 44.278 16.397 59.253h-76.106c-0.813-2.606-17.686-56.663-18.494-59.253h78.203zm47.859 135.05c-8e-3 -0.028-16.076-59.18-16.095-59.251h75.535c1e-3 3e-3 13.996 59.251 13.996 59.251h-73.436zm83.933 0c-0.225-0.977-13.526-58.514-13.697-59.251h75.529c0.165 0.846 11.408 58.281 11.597 59.251h-73.429zm83.923 0c-3e-3 -0.013-11.292-59.227-11.297-59.251h75.538c0.2 1.289 9.166 59.059 9.196 59.251h-73.437zm83.938 0c-0.819-5.464-7.961-53.011-8.896-59.251h75.528c0.031 0.274 6.636 57.848 6.797 59.251h-73.429zm83.929 0c0-1e-3 -6.496-59.25-6.496-59.251h75.531c0.063 0.852 4.341 58.499 4.397 59.251h-73.432zm83.931 0c-0.078-1.12-4.001-57.85-4.097-59.251h75.527c0.022 0.654 1.956 57.973 1.999 59.251h-73.429zm83.922 0c0-1e-3 -1.698-59.251-1.698-59.251h75.538c-0.021 3.084-0.382 56.159-0.402 59.251h-73.438zm84.641-59.251h75.524s-2.558 54.137-2.801 59.251h-73.424c0.018-1.454 0.663-56.035 0.701-59.251zm86.326 0h75.52c-0.058 0.659-5.143 58.608-5.199 59.251h-73.422c0.089-1.676 3.06-58.477 3.101-59.251zm163.97-16.548h-76.127c0.093-1.001 4.796-51.67 5.501-59.253h78.225s-6.742 52.588-7.599 59.253zm19.443-151.61h-81.495c0.254-2.742 5.188-55.883 5.5-59.254h83.595c-0.128 1-7.365 57.431-7.6 59.254zm9.723-75.804h-84.181c0.113-1.216 5.387-58.022 5.501-59.256h86.28c-4e-3 0.031-7.595 59.217-7.6 59.256zm29.166-227.42h-92.234c0.108-1.171 5.481-59.051 5.5-59.254h94.334c-0.015 0.114-7.585 59.137-7.6 59.254zm29.166-227.41h-100.29s5.499-59.25 5.499-59.252h102.39c-0.117 0.914-7.359 57.382-7.599 59.252zm17.321-135.04c-0.136 1.065-6.712 52.321-7.599 59.245h-102.98c0.226-2.436 5.171-55.685 5.499-59.245h105.08zm-120.1 0s-3.25 37.046-5.199 59.245h-102.96c0.038-0.724 3.065-58.574 3.101-59.245h105.06zm-120.08 0c-1e-3 0.026-2.8 59.219-2.801 59.245h-102.98c3e-3 -0.222 0.699-59.205 0.7-59.245h105.08zm-120.09 0c-2e-3 0.254-0.4 59.138-0.401 59.245h-102.98c-0.1-3.5-1.668-58.245-1.698-59.245h105.08zm-120.1 0c0.058 1.72 1.895 56.16 1.998 59.245h-102.97c-0.022-0.316-4.094-59.21-4.096-59.245h105.07zm-120.09 0c2e-3 0.026 4.394 59.219 4.396 59.245h-102.98c-0.233-2.119-6.487-59.165-6.496-59.245h105.08zm-120.1 0s6.22 54.218 6.798 59.245h-102.98c-1.04-6.919-8.895-59.245-8.895-59.245h105.08zm-120.09 0c0.018 0.12 8.631 55.611 9.196 59.245h-102.99s-11.293-59.244-11.293-59.246c3.615 1e-3 101.44 1e-3 105.09 1e-3zm-120.1 0c0.01 0.049 11.586 59.197 11.596 59.246h-102.97c-0.362-1.564-13.52-58.495-13.694-59.246h105.07zm-120.09 0c0.092 0.39 13.881 58.76 13.995 59.246h-102.98c-0.12-0.443-15.947-58.708-16.093-59.245 2.617-1e-3 101.93-1e-3 105.08-1e-3zm-120.1 0c0.276 1 16.007 57.848 16.394 59.245h-102.96c-3e-3 -0.01-18.284-58.583-18.491-59.246 3.353 2e-3 102.46 1e-3 105.06 1e-3zm-225.15 0h105.07c0.297 0.94 18.521 58.387 18.793 59.246h-102.97c-0.023-0.065-20.841-59.107-20.89-59.246zm26.725 75.793h102.39c0.791 2.492 18.004 56.766 18.793 59.252h-100.29c-0.097-0.275-19.925-56.508-20.893-59.252zm26.728 75.8h99.699c0.318 1 15.916 50.173 18.796 59.254h-97.604c-1.929-5.469-18.951-53.755-20.891-59.254zm26.727 75.802h97.017c1e-3 2e-3 18.796 59.254 18.796 59.254h-94.919c-4.183-11.863-20.894-59.254-20.894-59.254zm26.73 75.804h94.332c0 1e-3 18.794 59.253 18.794 59.254h-92.232c-8e-3 -0.022-20.886-59.232-20.894-59.254zm26.73 75.804h91.646c0.122 0.38 18.669 58.858 18.795 59.256h-89.546c-0.914-2.591-19.984-56.671-20.895-59.256zm26.732 75.806h88.957c0.404 1.274 18.243 57.515 18.794 59.256h-86.857c-0.069-0.194-20.799-58.986-20.894-59.256zm26.731 75.806h86.27c0.056 0.176 18.736 59.077 18.795 59.256h-84.169c-9e-3 -0.026-20.852-59.13-20.896-59.256zm26.732 75.806h83.583c1.047 3.305 18.585 58.596 18.794 59.254h-81.484c-0.192-0.544-20.884-59.228-20.893-59.254zm26.73 75.803h80.896c3.72 11.733 11.831 37.29 18.797 59.256h-78.797c-0.739-2.093-20.152-57.15-20.896-59.256zm26.73 75.805h78.212c0 1e-3 18.795 59.253 18.795 59.253h-76.115c-0.585-1.66-20.346-57.71-20.892-59.253zm26.728 75.801h75.529c0.52 1.639 17.99 56.719 18.793 59.251h-73.429c-0.498-1.413-20.353-57.714-20.893-59.251zm47.625 135.05c-2e-3 -5e-3 -20.897-59.249-20.897-59.249h72.843c0.671 2.111 18.127 57.147 18.794 59.249h-70.74zm80.857 0c-0.238-0.768-18.254-58.482-18.493-59.249h72.834c0.045 0.162 16.312 58.95 16.394 59.249h-70.735zm80.842 0c-0.439-1.609-15.667-57.672-16.095-59.249h72.849c6e-3 0.024 13.989 59.225 13.995 59.249h-70.749zm80.862 0c-0.097-0.42-13.537-58.568-13.695-59.249h72.844s11.39 58.193 11.596 59.249h-70.745zm80.854 0c-0.123-0.645-11.27-59.12-11.295-59.249h72.85c0.65 4.181 9.1 58.635 9.196 59.249h-70.751zm80.867 0c-0.125-0.84-8.768-58.402-8.895-59.249h72.843c0.115 1.001 5.91 51.525 6.797 59.249h-70.745zm80.861 0c-0.079-0.736-6.269-57.183-6.496-59.249h72.844c1.921 25.873 3.913 52.742 4.396 59.249h-70.744zm80.862 0c-0.049-0.728-4.05-58.568-4.097-59.249h72.842c0.081 2.401 1.877 55.637 1.998 59.249h-70.743zm80.853 0c-9e-3 -0.298-1.69-58.938-1.699-59.249h72.851c-0.01 1.474-0.312 46.179-0.402 59.249h-70.75zm80.869 0c0.021-1.486 0.595-50.253 0.702-59.249h72.839c-0.047 1.001-2.742 57.983-2.802 59.249h-70.739zm80.857 0c0.184-3.483 2.919-55.771 3.101-59.249h72.834c-0.55 6.285-4.962 56.565-5.199 59.249h-70.736zm80.84 0c0.128-1.428 5.364-57.822 5.497-59.249h72.855c0 1e-3 -7.599 59.248-7.599 59.249h-70.753zm151.6 0h-70.73c0.633-4.736 7.124-53.44 7.898-59.249h72.829s-9.993 59.228-9.997 59.249zm12.79-75.797h-73.415c0.695-5.226 7.256-54.422 7.899-59.251h75.516c-0.373 2.205-9.938 58.883-10 59.251zm12.792-75.799h-76.102c0.035-0.264 7.865-58.989 7.9-59.253h78.201s-4.05 24.009-9.999 59.253zm12.792-75.801h-78.787c3.408-25.582 7.885-59.156 7.898-59.256h80.887c-0.083 0.493-9.965 59.061-9.998 59.256zm12.791-75.806h-81.473c0.014-0.108 7.885-59.146 7.9-59.254h83.573c-0.19 1.129-9.988 59.183-10 59.254zm12.792-75.804h-84.158c0.392-2.95 7.802-58.529 7.899-59.256h86.256c-0.019 0.11-9.974 59.119-9.997 59.256zm12.792-75.806h-86.843c0.583-4.372 6.122-45.911 7.9-59.256h88.945c-2.049 12.129-10.002 59.255-10.002 59.256zm12.792-75.806h-89.531c0.201-1.502 7.766-58.255 7.9-59.256h91.63c-0.296 1.749-9.753 57.809-9.999 59.256zm12.791-75.806h-92.216c0.016-0.123 7.885-59.146 7.899-59.254h94.316c-2e-3 8e-3 -9.709 57.535-9.999 59.254zm12.792-75.804h-94.902c1.25-9.373 7.133-53.505 7.899-59.254h97.003c-1.09 6.46-9.149 54.204-10 59.254zm12.791-75.802h-97.589c0.213-1.596 7.689-57.672 7.9-59.254h99.688c-7e-3 0.04-9.992 59.214-9.999 59.254zm12.792-75.802h-100.28c0.047-0.357 7.776-58.32 7.9-59.252h102.37s-9.999 59.251-9.999 59.252zm12.792-75.8h-102.96c0.236-1.769 7.845-58.849 7.898-59.245h105.06c-0.356 2.111-9.67 57.289-9.999 59.245z"/>
	<path d="m547.59 1387.7c-75.197 0-136.16 60.959-136.16 136.16s60.959 136.16 136.16 136.16 136.16-60.959 136.16-136.16-60.959-136.16-136.16-136.16zm0 214.4c-43.211 0-78.24-35.029-78.24-78.24s35.029-78.24 78.24-78.24 78.24 35.029 78.24 78.24-35.03 78.24-78.24 78.24z"/>
	<path d="m1345.2 1387.7c-75.197 0-136.16 60.959-136.16 136.16s60.959 136.16 136.16 136.16 136.16-60.959 136.16-136.16-60.959-136.16-136.16-136.16zm0 214.4c-43.211 0-78.24-35.029-78.24-78.24s35.029-78.24 78.24-78.24 78.24 35.029 78.24 78.24-35.029 78.24-78.24 78.24z"/>
	<path d="m1944.2 60.051h-136.53c-18.935 0-36.76 8.934-48.091 24.104-122.53 164.04-124.58 159.84-118.95 179.9 5.414 19.304 19.114 21.017 65.695 39.754 15.994 6.433 34.295 0.354 43.26-14.371l77.941-128.02c41.051-67.429 146.92 1.31 146.92-60.641v-10.492c0-16.701-13.539-30.24-30.24-30.24z"/>
</svg>