<?xml version="1.0" encoding="UTF-8"?>
<svg width="593" height="800" version="1.1" viewBox="0 0 592.99905 800.00001" xmlns="http://www.w3.org/2000/svg">
 <g transform="translate(0 -252.36)">
  <path d="m296.52 252.36c-163.75-0.01067-296.51 132.73-296.52 296.48-0.0107 163.77 296.52 503.52 296.52 503.52s296.49-339.77 296.48-503.52c-0.0113-163.74-132.74-296.47-296.48-296.48zm0 18.974c153.26 8e-3 277.5 124.25 277.51 277.51-0.01 153.26-277.51 472.76-277.51 472.76s-277.54-319.49-277.55-472.76c8e-3 -153.27 124.27-277.52 277.55-277.51zm0 141.01a136.51 136.51 0 0 0 -136.54 136.5 136.51 136.51 0 0 0 136.54 136.54 136.51 136.51 0 0 0 136.5 -136.54 136.51 136.51 0 0 0 -136.5 -136.5zm0 13.941a122.58 122.58 0 0 1 122.55 122.55 122.58 122.58 0 0 1 -122.55 122.59 122.58 122.58 0 0 1 -122.59 -122.59 122.58 122.58 0 0 1 122.59 -122.55z" color="#000000" color-rendering="auto" fill="#404040" image-rendering="auto" shape-rendering="auto" solid-color="#000000" style="isolation:auto;mix-blend-mode:normal"/>
 </g>
</svg>
