<?xml version='1.0' encoding='utf-8'?>
<svg xmlns="http://www.w3.org/2000/svg" enable-background="new 0 0 2500 2500" version="1.1" viewBox="0 0 2500 2500"> <path d="m1878.8 839.26c-0.26367-2.038-0.62073-3.7958-1.1646-5.7733-2.0874-7.7124-5.4218-14.881-10.915-20.358l-359.89-359.89c-5.4987-5.5206-12.711-8.8605-20.468-10.937-1.8896-0.50537-3.5706-0.85693-5.5096-1.1151-2.016-0.27464-3.8013-1.1865-5.8942-1.1865h-630c-124.06 0-225 100.94-225 225v1170c0 124.06 100.94 225 225 225h810c124.06 0 225-100.94 225-225v-990c0-2.038-0.89539-3.7738-1.1591-5.7404zm-358.84-245.63 206.37 206.37h-206.37v-206.37zm135 1376.4h-810c-74.443 0-135-60.557-135-135v-1170c0-74.443 60.557-135 135-135h585v315c0 24.873 20.127 45 45 45h315v945c0 74.443-60.557 135-135 135z"/> <path d="m1565 1340h-630c-24.873 0-45 20.127-45 45s20.127 45 45 45h630c24.873 0 45-20.127 45-45s-20.127-45-45-45z"/> <path d="m935 1610h450c24.873 0 45-20.127 45-45s-20.127-45-45-45h-450c-24.873 0-45 20.127-45 45s20.127 45 45 45z"/> <path d="m1565 1700h-630c-24.873 0-45 20.127-45 45s20.127 45 45 45h630c24.873 0 45-20.127 45-45s-20.127-45-45-45z"/> <path d="m1070 1070c-24.829 0-45-20.171-45-45 0-24.873-20.127-45-45-45s-45 20.127-45 45c0 58.59 37.733 108.07 90 126.71v53.289c0 24.873 20.127 45 45 45s45-20.127 45-45v-53.289c52.267-18.638 90-68.121 90-126.71 0-74.443-60.557-135-135-135-24.829 0-45-20.171-45-45s20.171-45 45-45 45 20.171 45 45c0 24.873 20.127 45 45 45s45-20.127 45-45c0-58.59-37.733-108.07-90-126.71v-53.289c0-24.873-20.127-45-45-45s-45 20.127-45 45v53.289c-52.267 18.638-90 68.121-90 126.71 0 74.443 60.557 135 135 135 24.829 0 45 20.171 45 45s-20.171 45-45 45z"/> </svg>