<?xml version="1.0" encoding="utf-8"?>
<!-- Generator: Adobe Illustrator 22.1.0, SVG Export Plug-In . SVG Version: 6.00 Build 0)  -->
<svg version="1.1" id="Layer_1" xmlns="http://www.w3.org/2000/svg" xmlns:xlink="http://www.w3.org/1999/xlink" x="0px" y="0px"
	 viewBox="0 0 5000 5000" style="enable-background:new 0 0 5000 5000;" xml:space="preserve">
<style type="text/css">
	.st0{fill:#FEFEFE;stroke:#000000;stroke-miterlimit:10;}
	.st1{fill:#B7B6B6;}
	.st2{fill:#2BB741;}
	.st3{fill:#FEFEFE;}
</style>
<g>
	<path class="st0" d="M2462.7,479.5c51.1,0,102.3,0,153.4,0c11.7,4.2,23.8,0.8,35.6,1.9c109-0.3,216,16.4,322,39.9
		c164.7,36.6,321.8,94,471.6,171.4c140.2,72.4,269.9,160.4,389.1,264c140.2,121.9,261.3,260.3,362.4,416
		c116.1,178.7,201.5,371,254.7,577.6c20.2,78.6,36.9,157.9,46.4,238.5c4.6,38.9,6.2,78.1,5.8,117.4c1.1,9.7-2.2,19.6,1.9,29.1
		c0,76.1,0,152.2,0,228.2c-4.1,9.6-0.8,19.6-1.9,29.3c1.3,136-27.3,267.4-63.7,397.2c-55.1,196.6-139.6,380.1-252.7,550
		c-58.4,87.8-123.5,170.5-195.1,248.2c-153.6,166.7-330.7,302.3-530.8,408.4c-211.6,112.3-436.5,182.4-673.9,212.7
		c-58,7.4-116.6,9.9-175,13.9c-63.8,4.3-127.1,1.3-190.4-2c-105.9-5.5-210.8-20.5-314.4-43.7c-168.9-37.8-330.2-96.2-482.8-177.9
		c-26.3-14.1-49.8-16.4-78-6.8c-100.3,34.1-201.7,65.1-302.5,97.6c-230.2,74.2-460.7,147.3-690.9,221.5c-10.8,3.5-22,4.1-32.9,6.5
		c-3.7,0.5-7.7-1.1-10.9,1.9c-4.4,0-8.7-0.1-13.1,0c-3.8,0.1-1.1-2.6-1.9-3.8c54.1-179.7,118-356.1,177.4-534
		c54.9-164.4,108.3-329.3,166.4-492.7c5.7-16.1,4.2-29.2-4.4-44c-138.7-237.5-224.9-492.5-256.5-766c-8.8-76.2-14.4-152.7-14-229.3
		c1.3-243.6,43.1-479.9,130.4-707.8c81.3-212.4,195.9-404.8,343.5-577.5c160.1-187.3,348.9-339.3,566-456.4
		c222.9-120.2,460.1-194,711.3-222.9c37-4.3,74.5-4.4,111.9-4.8C2438.5,480.3,2450.8,483.7,2462.7,479.5z"/>
	<path class="st1" d="M4502.4,2305.2c1.1,0,2.2,0,3.3,0.2c0,10,0,20,0,29.9C4497.7,2326,4503.5,2315.2,4502.4,2305.2z"/>
	<path class="st1" d="M4505.6,2593.5c-1.1,0.2-2.2,0.3-3.3,0.2c1.1-10-4.6-20.8,3.3-30.2C4505.6,2573.6,4505.6,2583.5,4505.6,2593.5
		z"/>
	<path class="st2" d="M1014,4007.1c18.3-54.8,36.4-109.7,54.8-164.5c46.1-137.3,92.1-274.7,138.9-411.8c5.1-14.9,4.5-25.4-5.2-38.8
		c-43.5-60.1-81.4-123.6-115.9-189.3c-40-76.2-73.4-155.1-100.7-236.5c-29.6-88.5-51.8-178.9-65.2-271.3
		c-7.4-51-12.4-102.1-15.7-153.6c-3.6-55.4-4.4-110.8-1.6-166c7-137.5,29.4-272.5,70.1-404.2c28.2-91.1,63.6-179.2,107-264.1
		c59.4-116.4,132-223.8,216.7-323.2c26.7-31.3,54.4-61.6,83.5-90.5c65.4-64.9,135.3-124.8,210.5-178.3
		c81.4-57.9,167.3-108,257.6-150.3c98.2-46,200-81.9,305.5-107.2c76.1-18.3,153.1-30.8,231.1-38.5c80.1-7.9,160.3-9.7,240.4-5.4
		c131.2,6.9,260,29.4,386,67.5c92.5,28,181.9,63.6,267.9,107.7c129.7,66.4,248.6,148.4,356.9,246.2
		c99.4,89.7,186.3,190.1,261.2,300.8c77.4,114.4,139,236.8,185.4,367c36,101,61.4,204.5,77.1,310.4c6.5,44.1,10.8,88.6,13.5,133.3
		c2.6,42.3,3.6,84.5,3.2,126.8c-1,100.8-12.2,200.6-31.9,299.4c-25.5,127.3-65.9,249.8-121,367.3c-59.4,126.8-134,244.1-223.2,352.2
		c-44.5,53.9-92.5,104.5-143.4,152.1c-104.9,98.3-220.9,181.4-347.8,249.3c-84.6,45.3-172.5,83-263.7,112.7
		c-85.1,27.8-172,48.7-260.7,61.7c-51,7.4-102.1,12.2-153.6,15.7c-54.1,3.6-108.2,3.9-162.3,1.6c-77.5-3.3-154.5-12.1-230.8-26.6
		c-123.2-23.5-242.2-60.1-357-110.7c-79.9-35.2-156.3-76.6-229.5-124c-10-6.5-18.1-7.4-29.3-3.8c-162,52.4-324.2,104.3-486.4,156.2
		c-37.9,12.1-75.9,23.6-113.9,35.4C1017.5,4014,1013.8,4014.2,1014,4007.1z"/>
	<path class="st3" d="M3070.9,3436.2c-54.7,0.3-101.1-11.6-147-25.3c-88.3-26.2-173.9-59.9-258.7-95.6
		c-48.1-20.2-96.4-40.2-143.3-63.2c-109.1-53.3-208.4-121.4-301.7-198.7c-60.5-50.2-117-104.7-170.7-161.8
		c-105.5-112.2-199.3-233.8-281-364.5c-28.7-45.9-60.4-89.9-86.7-137.3c-48.8-87.9-89.1-179.2-110.7-277.9
		c-8.4-38.3-13.5-76.8-14.8-116.2c-2.3-65.1,5.2-128.6,23.2-191c24.6-85.4,68.7-159.4,130.1-223.5c15-15.7,30.2-31.2,46.2-45.9
		c40.2-37,87.5-53.6,141.8-49.7c37.1,2.6,74,8.3,111.5,7.5c19.9-0.4,35.7,10.2,48.2,24.9c18.5,21.6,28.6,47.8,38.4,74.1
		c44.8,120.6,87.9,241.8,134.4,361.8c4.9,12.7,9.9,25.3,12.8,38.8c4.4,20.8-1.2,39-9.8,57.3c-19.1,41.1-46.9,76-77.4,109.1
		c-22.4,24.3-44.5,48.7-68.3,71.7c-27.6,26.7-30,52.8-12.2,85.8c30.4,56.5,64.3,110.9,101.3,163.3c46.7,66.2,97.6,129.1,155.6,185.8
		c91.8,89.6,193.2,166.4,307.5,225.3c36.5,18.8,73.4,36.8,110.2,55.1c3.9,1.9,7.9,3.6,11.9,5.2c31.5,12.8,58.9,5.8,81.3-18.7
		c45.3-49.5,91.2-98.6,133.8-150.5c11.8-14.4,23.6-28.9,34.7-43.9c22.6-30.6,48.2-41.1,90.2-27.9c38.2,12,73,31.8,108.3,50
		c59.1,30.6,117.7,62.2,176.3,93.6c46.6,25,92.8,50.7,139.4,75.6c27,14.4,39.1,35.9,37.9,66.8c-2.1,55.7-13.2,109.4-30.3,162.4
		c-12.2,37.8-28.1,73.1-55.4,102.5c-21.3,22.9-44.7,43.3-70.3,61.3c-62.1,43.7-128.6,78.3-202.9,95.8c-24,5.6-49.2,6.4-73.5,11
		C3109.1,3433.2,3087.2,3437.3,3070.9,3436.2z"/>
</g>
</svg>
